<?xml version="1.0" standalone="no"?>
<!DOCTYPE svg PUBLIC "-//W3C//DTD SVG 20010904//EN"
 "http://www.w3.org/TR/2001/REC-SVG-20010904/DTD/svg10.dtd">
<svg version="1.0" xmlns="http://www.w3.org/2000/svg"
 width="500.000000pt" height="500.000000pt" viewBox="0 0 500.000000 500.000000"
 preserveAspectRatio="xMidYMid meet">
<metadata>
Created by potrace 1.16, written by Peter Selinger 2001-2019
</metadata>
<g transform="translate(0.000000,500.000000) scale(0.100000,-0.100000)"
fill="#000000" stroke="none">
<path d="M2276 4549 c-301 -32 -654 -158 -911 -327 -362 -236 -639 -579 -790
-978 -56 -147 -78 -225 -107 -379 -20 -104 -23 -152 -23 -360 1 -254 7 -313
60 -520 170 -673 688 -1220 1359 -1440 333 -109 750 -126 1092 -45 847 199
1470 890 1579 1750 21 162 16 443 -9 585 -78 434 -260 793 -556 1099 -390 404
-930 629 -1495 624 -66 0 -155 -4 -199 -9z m1102 -528 c29 -99 41 -111 111
-111 31 0 73 -3 94 -6 l38 -7 -53 -35 c-74 -49 -108 -82 -108 -106 0 -12 11
-56 24 -98 14 -43 22 -78 20 -78 -3 0 -35 23 -71 50 -91 69 -96 69 -199 -1
l-73 -49 30 88 c16 48 27 97 24 109 -3 11 -37 45 -77 74 -66 49 -70 54 -47 60
13 3 51 4 85 1 53 -4 63 -2 86 19 16 15 35 52 48 94 35 108 36 108 68 -4z
m500 -85 c20 -14 85 -73 143 -133 343 -351 523 -869 480 -1382 -20 -237 -57
-383 -140 -549 -25 -52 -52 -85 -37 -46 4 10 9 26 12 34 110 432 96 876 -41
1269 -93 267 -277 598 -424 763 -28 31 -51 59 -51 62 0 12 21 5 58 -18z
m-1251 -557 c97 -13 176 -45 259 -104 71 -51 84 -73 26 -45 -182 88 -515 72
-720 -35 -37 -19 -78 -43 -91 -52 -47 -34 -7 19 66 88 101 95 203 138 370 158
6 0 47 -4 90 -10z m214 -148 c81 -26 184 -92 204 -132 23 -43 19 -43 -26 1
-86 83 -214 124 -394 124 -278 1 -493 -82 -591 -228 -19 -28 -34 -45 -34 -38
0 58 110 172 214 221 60 28 179 64 251 75 17 2 93 3 170 1 110 -2 154 -7 206
-24z m-461 -115 c0 -2 -22 -18 -49 -35 -60 -39 -142 -125 -169 -177 -18 -35
-57 -190 -65 -254 -2 -25 -2 -25 -15 -3 -20 35 -42 134 -42 187 0 115 88 204
260 263 66 23 80 26 80 19z m795 -69 c23 -19 29 -37 41 -121 12 -79 12 -106 3
-128 -18 -45 -77 -68 -66 -27 9 35 -12 185 -33 242 -11 28 -20 53 -20 55 0 1
11 2 24 2 14 0 37 -10 51 -23z m-121 -98 c44 -52 30 -139 -22 -139 -45 0 -92
74 -77 120 18 56 61 64 99 19z m-1104 -136 c0 -66 9 -114 41 -233 6 -24 -42
-13 -67 15 -15 16 -27 53 -38 112 -21 114 -21 116 10 152 43 51 54 42 54 -46z
m-298 -379 c2 -38 -2 -64 -12 -78 -20 -29 -18 -139 5 -205 12 -39 33 -70 69
-105 27 -28 73 -85 100 -126 64 -96 190 -221 286 -285 41 -28 77 -52 80 -55 3
-3 16 -11 30 -18 25 -12 25 -12 1 -6 l-24 6 7 -72 c8 -79 55 -224 71 -219 5 2
8 9 6 14 -12 33 -10 45 4 16 8 -19 14 -35 13 -35 -29 -15 -98 -83 -108 -106
-7 -16 -18 -30 -24 -30 -32 1 -172 43 -231 69 -37 17 -86 32 -109 32 l-41 1
39 8 c41 8 86 48 86 76 0 21 -9 17 -32 -11 -11 -14 -23 -25 -28 -25 -5 0 2 11
15 25 42 41 28 71 -39 82 -41 6 -65 -8 -67 -41 -1 -18 -2 -18 -6 -3 -3 10 4
28 14 39 15 16 26 19 60 14 48 -6 56 5 18 22 -35 16 -66 15 -92 -3 -24 -17
-45 -77 -36 -103 3 -9 -4 -3 -15 13 -11 17 -45 55 -77 85 -62 60 -126 140
-169 210 l-27 45 5 -35 c5 -31 5 -32 -4 -11 -6 13 -18 65 -26 115 -32 181 11
405 110 580 54 93 116 176 132 176 8 0 13 -21 16 -56z m1268 -44 c-101 -89
-225 -134 -370 -134 -123 0 -234 32 -305 88 -18 15 -17 15 18 1 66 -27 176
-45 271 -45 118 0 224 26 336 84 47 24 87 44 90 44 3 1 -15 -17 -40 -38z m255
-82 c49 -16 91 -31 92 -32 2 -2 -6 -38 -17 -81 -11 -43 -20 -93 -20 -112 0
-29 -3 -33 -22 -29 -176 36 -179 37 -188 62 -5 13 -17 24 -26 24 -14 0 -16 -8
-10 -62 4 -35 10 -75 13 -90 l6 -28 -72 0 -71 0 0 35 c0 25 -8 44 -25 60 l-24
25 -226 0 c-212 0 -226 -1 -245 -20 -13 -13 -20 -33 -20 -60 l0 -40 -76 0 -77
0 7 58 c12 95 11 105 -1 109 -7 3 -17 -6 -22 -20 -10 -24 -31 -31 -167 -52
l-41 -6 -6 98 c-3 54 -9 108 -13 120 -5 19 -1 23 38 33 23 6 77 21 118 33 l75
23 62 -42 c94 -62 206 -97 323 -98 52 0 120 5 150 13 79 19 189 74 241 119
l44 40 55 -25 c30 -14 95 -39 145 -55z m-1405 17 c27 -26 47 -37 75 -39 33 -3
40 -8 47 -32 11 -37 12 -189 3 -204 -5 -8 -27 -11 -66 -8 -45 3 -65 10 -85 29
-65 60 -105 211 -70 264 23 35 54 31 96 -10z m1660 -78 c72 -56 65 -203 -11
-242 -56 -30 -103 -14 -118 40 -19 68 13 135 77 162 27 11 31 17 22 28 -6 8
-18 11 -26 8 -8 -3 -14 0 -14 6 0 15 51 13 70 -2z m-978 -294 l3 -98 40 -5
c39 -5 40 -6 43 -48 l3 -42 -36 24 c-37 26 -113 43 -140 32 -13 -5 -15 10 -15
102 0 71 4 112 12 120 7 7 29 12 50 12 l37 0 3 -97z m368 78 c5 -11 10 -63 10
-115 l0 -96 -32 0 c-25 0 -29 3 -20 12 17 17 15 78 -5 100 -20 22 -76 24 -97
2 -40 -40 -20 -114 34 -122 21 -4 21 -5 -8 -23 -17 -10 -42 -34 -54 -54 -19
-29 -28 -35 -53 -33 -30 3 -30 3 -35 78 l-5 75 -40 5 -40 5 -3 93 -3 92 170 0
c158 0 171 -1 181 -19z m-505 -141 l0 -35 -82 -3 c-88 -3 -123 7 -123 36 0 36
21 43 115 40 l90 -3 0 -35z m729 34 c19 -7 21 -45 4 -62 -8 -8 -45 -12 -100
-12 l-88 0 0 40 0 40 84 0 c46 0 91 -3 100 -6z m-734 -112 c0 -5 -9 -17 -21
-28 -26 -23 -69 -106 -69 -133 0 -52 -47 -33 -55 23 -9 58 -13 129 -8 139 6
10 153 9 153 -1z m708 -100 c1 -57 -2 -111 -8 -121 -5 -11 -25 -25 -44 -31
-31 -10 -36 -16 -42 -56 -3 -24 -8 -44 -10 -44 -2 0 -24 13 -50 30 -54 34
-140 54 -197 47 l-40 -5 6 50 c9 73 49 153 89 178 46 28 126 27 162 -1 35 -27
48 -53 61 -119 8 -36 17 -55 26 -55 10 0 13 11 11 45 -6 79 -38 134 -97 172
l-30 18 80 -2 80 -3 3 -103z m-542 48 c18 -12 42 -40 53 -63 19 -41 24 -57 35
-124 l5 -31 -59 5 c-70 7 -141 -9 -191 -42 -42 -27 -49 -24 -49 18 0 16 -5 47
-12 68 -15 51 4 110 50 156 28 29 39 33 84 33 34 0 62 -7 84 -20z m71 -246
c21 -6 22 -10 17 -63 -18 -192 -44 -241 -127 -241 -32 0 -51 6 -69 23 -27 25
-64 113 -74 176 -6 34 -3 40 25 60 60 43 161 63 228 45z m265 -32 c25 -11 56
-32 70 -47 l26 -28 -18 -52 c-28 -81 -48 -113 -80 -130 -39 -20 -79 -19 -117
5 -38 23 -51 61 -60 178 -5 66 -3 86 8 93 21 15 120 4 171 -19z"/>
<path d="M1563 1969 c-17 -5 -43 -23 -57 -40 -28 -33 -34 -54 -13 -46 9 3 11
-8 9 -43 -4 -53 15 -80 75 -106 72 -31 122 -6 133 67 l7 44 2 -38 c1 -31 -5
-45 -29 -69 -27 -27 -36 -30 -72 -25 -23 3 -54 15 -69 26 -15 12 -30 17 -33
12 -8 -13 38 -51 78 -65 50 -17 92 -9 126 26 102 101 -17 296 -157 257z"/>
</g>
</svg>
